<?xml version="1.0" encoding="UTF-8"?>
<svg width="24" height="24" viewBox="0 0 48 48" fill="none" xmlns="http://www.w3.org/2000/svg">

<!-- 文件图形 -->
<path d="M10 44H38C39.1046 44 40 43.1046 40 42V14H30V4H10C8.89543 4 8 4.89543 8 6V42C8 43.1046 8.89543 44 10 44Z"
      fill="none" stroke="#2F80ED" stroke-width="4" stroke-linecap="round" stroke-linejoin="round"/>
<path d="M30 4L40 14"
      stroke="#2F80ED" stroke-width="4" stroke-linecap="round" stroke-linejoin="round"/>

<!-- 缩小后的 share 图形 -->
<g transform="translate(24 24) scale(0.5) translate(-28 -16)">
<path d="M35 16C37.7614 16 40 13.7614 40 11C40 8.23858 37.7614 6 35 6C32.2386 6 30 8.23858 30 11C30 13.7614 32.2386 16 35 16Z"
      fill="none" stroke="#2F80ED" stroke-width="4" stroke-linejoin="round"/>
<path d="M13 29C15.7614 29 18 26.7614 18 24C18 21.2386 15.7614 19 13 19C10.2386 19 8 21.2386 8 24C8 26.7614 10.2386 29 13 29Z"
      fill="none" stroke="#2F80ED" stroke-width="4" stroke-linejoin="round"/>
<path d="M30.0004 13.5745L17.3393 21.2454"
      stroke="#2F80ED" stroke-width="4" stroke-linecap="round" stroke-linejoin="round"/>
<path d="M17.3385 26.5639L30.6789 34.4469"
      stroke="#2F80ED" stroke-width="4" stroke-linecap="round" stroke-linejoin="round"/>
<path d="M35 32C37.7614 32 40 34.2386 40 37C40 39.7614 37.7614 42 35 42C32.2386 42 30 39.7614 30 37C30 34.2386 32.2386 32 35 32Z"
      fill="none" stroke="#2F80ED" stroke-width="4" stroke-linejoin="round"/>
</g>

</svg>